<?xml version="1.0"?>
<svg xmlns="http://www.w3.org/2000/svg" xmlns:xlink="http://www.w3.org/1999/xlink" version="1.1" id="Capa_1" x="0px" y="0px" viewBox="0 0 512 512" style="enable-background:new 0 0 512 512;" xml:space="preserve" width="512px" height="512px"><g><g>
	<g>
		<path d="M255.999,255.256c-17.587,0-31.896,14.309-31.896,31.896s14.309,31.896,31.896,31.896    c17.587,0,31.896-14.309,31.896-31.896C287.895,269.565,273.587,255.256,255.999,255.256z M255.999,299.046    c-6.557,0-11.892-5.334-11.892-11.892s5.335-11.892,11.892-11.892c6.557,0,11.892,5.334,11.892,11.892    S262.557,299.046,255.999,299.046z" data-original="#000000" class="active-path" data-old_color="#000000" fill="#FFFFFF"/>
	</g>
</g><g>
	<g>
		<path d="M210.221,325.029c-17.587,0-31.896,14.309-31.896,31.896c0,17.587,14.309,31.896,31.896,31.896    s31.896-14.309,31.896-31.896S227.808,325.029,210.221,325.029z M210.222,368.817c-6.557,0-11.892-5.335-11.892-11.892    c0-6.557,5.335-11.892,11.892-11.892c6.557,0,11.892,5.334,11.892,11.892C222.114,363.483,216.778,368.817,210.222,368.817z" data-original="#000000" class="active-path" data-old_color="#000000" fill="#FFFFFF"/>
	</g>
</g><g>
	<g>
		<path d="M301.777,325.029c-17.587,0-31.896,14.309-31.896,31.896c0,17.587,14.309,31.896,31.896,31.896    c17.587,0,31.896-14.309,31.896-31.896S319.364,325.029,301.777,325.029z M301.778,368.817c-6.557,0-11.892-5.335-11.892-11.892    c0-6.557,5.335-11.892,11.892-11.892c6.557,0,11.892,5.334,11.892,11.892C313.67,363.483,308.334,368.817,301.778,368.817z" data-original="#000000" class="active-path" data-old_color="#000000" fill="#FFFFFF"/>
	</g>
</g><g>
	<g>
		<path d="M164.399,394.801c-17.587,0-31.896,14.309-31.896,31.896c0,17.587,14.309,31.896,31.896,31.896    s31.896-14.309,31.896-31.896C196.295,409.109,181.987,394.801,164.399,394.801z M164.399,438.589    c-6.557,0-11.892-5.335-11.892-11.892c0-6.557,5.335-11.892,11.892-11.892s11.892,5.334,11.892,11.892    C176.292,433.255,170.957,438.589,164.399,438.589z" data-original="#000000" class="active-path" data-old_color="#000000" fill="#FFFFFF"/>
	</g>
</g><g>
	<g>
		<path d="M255.999,394.801c-17.587,0-31.896,14.309-31.896,31.896c0,17.587,14.309,31.896,31.896,31.896    c17.587,0,31.896-14.309,31.896-31.896C287.895,409.109,273.587,394.801,255.999,394.801z M255.999,438.589    c-6.557,0-11.892-5.335-11.892-11.892c0-6.557,5.335-11.892,11.892-11.892c6.557,0,11.892,5.334,11.892,11.892    C267.892,433.255,262.557,438.589,255.999,438.589z" data-original="#000000" class="active-path" data-old_color="#000000" fill="#FFFFFF"/>
	</g>
</g><g>
	<g>
		<path d="M347.6,394.801c-17.587,0-31.896,14.309-31.896,31.896c0,17.587,14.309,31.896,31.896,31.896    c17.587,0,31.896-14.309,31.896-31.896C379.496,409.109,365.187,394.801,347.6,394.801z M347.6,438.589    c-6.557,0-11.892-5.335-11.892-11.892c0-6.557,5.335-11.892,11.892-11.892c6.557,0,11.892,5.334,11.892,11.892    C359.492,433.255,354.157,438.589,347.6,438.589z" data-original="#000000" class="active-path" data-old_color="#000000" fill="#FFFFFF"/>
	</g>
</g><g>
	<g>
		<path d="M482.05,83.36c-39.933-39.933-104.911-39.933-144.824-0.02l-81.102,80.639L174.794,83.36    c-39.935-39.935-104.913-39.932-144.844,0c-39.933,39.933-39.933,104.911,0,144.844l87.64,87.64    c1.952,1.952,4.513,2.93,7.072,2.93c2.55,0,5.101-0.969,7.051-2.909l124.413-123.682l124.151,123.675    c1.951,1.944,4.506,2.917,7.059,2.917c2.56,0,5.12-0.977,7.072-2.93l87.64-87.64C521.983,188.271,521.983,123.294,482.05,83.36z     M124.683,294.649l-16.176-16.176l69.564-69.564c3.906-3.906,3.906-10.239,0-14.145c-3.907-3.906-10.238-3.905-14.146,0    l-69.563,69.564L44.095,214.06c-32.134-32.134-32.134-84.42,0-116.555C60.16,81.44,81.254,73.408,102.361,73.408    c21.111,0,42.236,8.044,58.32,24.128l81.257,80.547L124.683,294.649z M467.904,214.059l-80.581,80.582l-117.01-116.562    l16.44-16.346l69.748,69.748c1.953,1.953,4.513,2.93,7.072,2.93c2.559,0,5.12-0.977,7.072-2.93c3.906-3.906,3.906-10.239,0-14.145    l-69.707-69.708l50.411-50.123c32.132-32.133,84.42-32.135,116.554,0C500.038,129.639,500.038,181.925,467.904,214.059z" data-original="#000000" class="active-path" data-old_color="#000000" fill="#FFFFFF"/>
	</g>
</g><g>
	<g>
		<path d="M396.584,243.271c-0.468-0.46-0.978-0.88-1.528-1.24c-0.54-0.36-1.12-0.67-1.721-0.92c-0.6-0.25-1.229-0.44-1.87-0.57    c-1.29-0.26-2.62-0.26-3.91,0c-0.641,0.13-1.271,0.32-1.87,0.57c-0.601,0.25-1.181,0.56-1.73,0.92c-0.54,0.36-1.06,0.78-1.52,1.24    s-0.88,0.97-1.24,1.52c-0.36,0.54-0.67,1.12-0.92,1.73c-0.25,0.6-0.44,1.23-0.57,1.87s-0.2,1.3-0.2,1.95    c0,0.65,0.07,1.31,0.2,1.96c0.13,0.63,0.32,1.26,0.57,1.87c0.25,0.6,0.56,1.18,0.92,1.72c0.36,0.55,0.78,1.06,1.24,1.52    c0.46,0.46,0.979,0.88,1.52,1.25c0.55,0.36,1.13,0.67,1.73,0.92c0.6,0.25,1.229,0.44,1.87,0.57c0.649,0.13,1.3,0.19,1.949,0.19    c0.66,0,1.311-0.06,1.96-0.19c0.641-0.13,1.271-0.32,1.87-0.57c0.601-0.25,1.181-0.56,1.721-0.92c0.55-0.37,1.06-0.79,1.529-1.25    c0.46-0.46,0.87-0.97,1.24-1.52c0.36-0.54,0.67-1.12,0.92-1.72c0.25-0.61,0.44-1.24,0.57-1.87c0.13-0.65,0.2-1.31,0.2-1.96    C399.515,247.712,398.445,245.132,396.584,243.271z" data-original="#000000" class="active-path" data-old_color="#000000" fill="#FFFFFF"/>
	</g>
</g><g>
	<g>
		<path d="M206.739,173.948c-0.13-0.64-0.32-1.27-0.57-1.87c-0.25-0.61-0.56-1.19-0.92-1.73c-0.36-0.55-0.78-1.06-1.24-1.52    s-0.979-0.88-1.52-1.24c-0.55-0.36-1.13-0.67-1.73-0.92c-0.6-0.25-1.229-0.44-1.87-0.57c-1.29-0.26-2.62-0.26-3.91,0    c-0.641,0.13-1.271,0.32-1.87,0.57c-0.601,0.25-1.181,0.56-1.73,0.92c-0.54,0.36-1.05,0.78-1.52,1.24    c-0.46,0.46-0.88,0.97-1.24,1.52c-0.36,0.54-0.67,1.12-0.92,1.73c-0.25,0.6-0.44,1.23-0.57,1.87c-0.13,0.64-0.2,1.3-0.2,1.95    c0,0.65,0.07,1.31,0.2,1.96c0.13,0.63,0.32,1.26,0.57,1.87c0.25,0.6,0.56,1.18,0.92,1.72c0.36,0.55,0.78,1.06,1.24,1.52    c0.47,0.46,0.979,0.88,1.52,1.25c0.55,0.36,1.13,0.67,1.73,0.92c0.6,0.25,1.229,0.44,1.87,0.57c0.649,0.13,1.3,0.19,1.96,0.19    c2.63,0,5.2-1.07,7.07-2.931c0.46-0.46,0.88-0.97,1.24-1.52c0.36-0.54,0.67-1.12,0.92-1.72c0.25-0.61,0.44-1.24,0.57-1.87    c0.13-0.65,0.189-1.31,0.189-1.96C206.928,175.248,206.868,174.588,206.739,173.948z" data-original="#000000" class="active-path" data-old_color="#000000" fill="#FFFFFF"/>
	</g>
</g><g>
	<g>
		<path d="M146.602,184.952l-21.382-57.391c-0.447-1.115-0.806-1.679-1.542-2.415c-4.027-4.027-14.973,0.773-18.188,3.989    c-2.316,2.316-2.954,4.876-1.842,7.398l15.662,36.083l-36.08-15.661c-2.489-1.095-5.154-0.405-7.502,1.943    c-4.379,4.379-7.955,14.224-4.092,18.086c0.567,0.567,1.762,1.321,2.656,1.554l57.351,21.366    c3.165,1.218,7.605-1.667,10.447-4.509C145.155,192.33,147.739,187.911,146.602,184.952z" data-original="#000000" class="active-path" data-old_color="#000000" fill="#FFFFFF"/>
	</g>
</g></g> </svg>
